<svg xmlns="http://www.w3.org/2000/svg" width="560" height="260" viewBox="0 0 560 260" role="img" aria-label="AI Interview System project card">
<defs><linearGradient id="b" x1="0" y1="0" x2="1" y2="1"><stop stop-color="#0b1120"/><stop offset="1" stop-color="#111827"/></linearGradient><linearGradient id="a" x1="0" y1="0" x2="1" y2="0"><stop stop-color="#60a5fa"/><stop offset="1" stop-color="#22d3ee"/></linearGradient><filter id="s"><feDropShadow dx="0" dy="7" stdDeviation="12" flood-color="#000" flood-opacity=".35"/></filter></defs>
<style>.base{font-family:Arial,Helvetica,sans-serif}</style>
<rect x="8" y="8" width="544" height="244" rx="18" fill="url(#b)" stroke="#60a5fa" stroke-opacity=".35" filter="url(#s)"/>
<rect x="8" y="8" width="544" height="5" rx="3" fill="url(#a)"/>
<circle cx="508" cy="50" r="25" fill="#60a5fa" fill-opacity=".10" stroke="#60a5fa" stroke-opacity=".35"/><text x="508" y="56" text-anchor="middle" class="base" font-size="16" font-weight="800" fill="#60a5fa">03</text>
<text x="34" y="47" class="base" font-size="12" letter-spacing="2" font-weight="700" fill="#60a5fa">AI-POWERED CAREER PRODUCT</text>
<text x="34" y="81" class="base" font-size="25" font-weight="800" fill="#f8fafc">AI Interview System</text>
<text x="34" y="119" class="base" font-size="14" fill="#94a3b8">Resume-aware mock interviews</text><text x="34" y="140" class="base" font-size="14" fill="#94a3b8">with AI scoring and feedback.</text>
<path d="M310 105v78" stroke="#334155"/><circle cx="335" cy="122" r="3" fill="#60a5fa"/><text x="348" y="127" class="base" font-size="14" fill="#cbd5e1">OpenRouter integration</text><circle cx="335" cy="147" r="3" fill="#60a5fa"/><text x="348" y="152" class="base" font-size="14" fill="#cbd5e1">Resume-aware questions</text><circle cx="335" cy="172" r="3" fill="#60a5fa"/><text x="348" y="177" class="base" font-size="14" fill="#cbd5e1">Structured evaluation</text><rect x="34" y="211" width="64" height="27" rx="7" fill="#60a5fa" fill-opacity=".10" stroke="#60a5fa" stroke-opacity=".35"/><text x="66.0" y="229" text-anchor="middle" class="base" font-size="12" font-weight="700" fill="#cbd5e1">Django</text><rect x="107" y="211" width="96" height="27" rx="7" fill="#60a5fa" fill-opacity=".10" stroke="#60a5fa" stroke-opacity=".35"/><text x="155.0" y="229" text-anchor="middle" class="base" font-size="12" font-weight="700" fill="#cbd5e1">OpenRouter</text><rect x="212" y="211" width="62" height="27" rx="7" fill="#60a5fa" fill-opacity=".10" stroke="#60a5fa" stroke-opacity=".35"/><text x="243.0" y="229" text-anchor="middle" class="base" font-size="12" font-weight="700" fill="#cbd5e1">JWT</text><rect x="283" y="211" width="62" height="27" rx="7" fill="#60a5fa" fill-opacity=".10" stroke="#60a5fa" stroke-opacity=".35"/><text x="314.0" y="229" text-anchor="middle" class="base" font-size="12" font-weight="700" fill="#cbd5e1">Neon</text>
</svg>