<svg xmlns="http://www.w3.org/2000/svg" width="1200" height="250" viewBox="0 0 1200 250" role="img" aria-labelledby="title desc">
<title id="title">Engineering proof</title><desc id="desc">Four recruiter-focused engineering capability cards.</desc>
<defs><linearGradient id="bg" x1="0" y1="0" x2="1" y2="1"><stop stop-color="#080d18"/><stop offset="1" stop-color="#11152b"/></linearGradient><linearGradient id="a" x1="0" y1="0" x2="1" y2="0"><stop stop-color="#22d3ee"/><stop offset=".5" stop-color="#60a5fa"/><stop offset="1" stop-color="#a78bfa"/></linearGradient></defs>
<style>.b{font-family:Arial,Helvetica,sans-serif}</style>
<rect x="1" y="1" width="1198" height="248" rx="22" fill="url(#bg)" stroke="#273652"/><rect x="27" y="24" width="112" height="4" rx="2" fill="url(#a)"/>
<text x="28" y="61" class="b" font-size="25" font-weight="800" fill="#f8fafc">Engineering proof</text><text x="1172" y="57" text-anchor="end" class="b" font-size="13" fill="#7f91aa">what recruiters can verify in the repositories</text>
<g><rect x="28" y="88" width="270" height="130" rx="15" fill="#0d1527" stroke="#1f4f62"/><circle cx="62" cy="122" r="18" fill="#22d3ee" fill-opacity=".13" stroke="#22d3ee"/><text x="62" y="128" text-anchor="middle" class="b" font-size="18" font-weight="800" fill="#67e8f9">API</text><text x="91" y="119" class="b" font-size="18" font-weight="800" fill="#f8fafc">Backend systems</text><text x="50" y="159" class="b" font-size="14" fill="#94a3b8">Django REST · JWT · RBAC</text><text x="50" y="184" class="b" font-size="14" fill="#94a3b8">Data modeling · validation</text></g>
<g><rect x="319" y="88" width="270" height="130" rx="15" fill="#0d1527" stroke="#4c3d72"/><circle cx="353" cy="122" r="18" fill="#a78bfa" fill-opacity=".13" stroke="#a78bfa"/><text x="353" y="128" text-anchor="middle" class="b" font-size="18" font-weight="800" fill="#c4b5fd">WS</text><text x="382" y="119" class="b" font-size="18" font-weight="800" fill="#f8fafc">Real-time flows</text><text x="341" y="159" class="b" font-size="14" fill="#94a3b8">Channels · WebSockets</text><text x="341" y="184" class="b" font-size="14" fill="#94a3b8">Async state synchronization</text></g>
<g><rect x="610" y="88" width="270" height="130" rx="15" fill="#0d1527" stroke="#245365"/><circle cx="644" cy="122" r="18" fill="#60a5fa" fill-opacity=".13" stroke="#60a5fa"/><text x="644" y="128" text-anchor="middle" class="b" font-size="18" font-weight="800" fill="#93c5fd">⚡</text><text x="673" y="119" class="b" font-size="18" font-weight="800" fill="#f8fafc">Performance</text><text x="632" y="159" class="b" font-size="14" fill="#94a3b8">Redis · caching strategy</text><text x="632" y="184" class="b" font-size="14" fill="#94a3b8">ORM and query optimization</text></g>
<g><rect x="901" y="88" width="270" height="130" rx="15" fill="#0d1527" stroke="#23533f"/><circle cx="935" cy="122" r="18" fill="#4ade80" fill-opacity=".12" stroke="#4ade80"/><text x="935" y="128" text-anchor="middle" class="b" font-size="15" font-weight="800" fill="#86efac">LIVE</text><text x="964" y="119" class="b" font-size="18" font-weight="800" fill="#f8fafc">Product delivery</text><text x="923" y="159" class="b" font-size="14" fill="#94a3b8">Docker · Render · Vercel</text><text x="923" y="184" class="b" font-size="14" fill="#94a3b8">Working demos and deployments</text></g>
</svg>